PathFileType	4	(X/Y/Z)	D:\TRACE\v60_Jaco2_6-2-23\JustBodyDRS_Motion3_5-platform.trc
DataRate	CameraRate	NumFrames	NumMarkers	Units	OrigDataRate	OrigDataStartFrame	OrigNumFrames
100.00	100.00	      61	5	mm	100.00	6126	      7000
Frame#	Time	Left_Front			Right_Front			Left_Aft			Right_Aft			Post			
		X1	Y1	Z1	X2	Y2	Z2	X3	Y3	Z3	X4	Y4	Z4	X5	Y5	Z5	

6126	61.250	-776.06317	16.88622	-649.37109	794.38293	15.06888	-626.27808	-707.76636	6.07500	484.89700	706.73743	3.05030	590.59534	18.95187	1317.58643	-948.65332	
6127	61.260	-776.12006	17.00983	-649.28534	794.26868	15.28915	-626.15497	-707.87445	5.96495	485.00006	706.57263	2.92862	590.72070	18.77750	1317.78003	-948.35419	
6128	61.270	-776.38116	17.30125	-649.21344	794.02942	15.47244	-626.09210	-707.94922	5.80886	485.02591	706.39185	2.62436	590.63190	18.48427	1318.24683	-948.03717	
6129	61.280	-776.70081	17.62609	-649.29968	793.79840	15.70590	-626.13617	-708.14532	5.70502	485.03860	706.22565	2.46812	590.65552	18.36909	1318.64966	-947.67487	
6130	61.290	-777.01422	18.01989	-649.24164	793.47943	15.94941	-626.28870	-708.48615	5.56373	484.97794	706.11176	2.27190	590.72388	18.18682	1319.03381	-947.11798	
6131	61.300	-777.19397	18.22048	-649.11414	793.30865	16.21592	-626.20844	-708.64105	5.40540	485.01477	705.96008	2.04151	590.81573	17.76982	1319.43591	-946.32922	
6132	61.310	-777.19556	18.31750	-648.92346	793.28510	16.66207	-625.87238	-708.85712	5.23444	485.07483	705.77234	1.86504	590.90082	17.96755	1319.81848	-945.31409	
6133	61.320	-777.26202	18.44589	-648.91498	793.15857	16.87025	-625.87756	-708.97449	5.12193	485.09369	705.67639	1.62584	590.92175	17.98303	1320.03296	-944.52332	
6134	61.330	-777.40112	18.60979	-648.96759	792.92023	17.00002	-626.02771	-709.04663	4.99200	485.11710	706.73578	2.16528	591.30945	17.74073	1320.34888	-943.85571	
6135	61.340	-777.90887	17.98301	-649.79352	792.75494	17.15874	-626.09119	-709.17578	4.91488	485.15775	705.65027	1.67545	591.02551	17.25915	1320.80017	-942.74921	
6136	61.350	-778.11090	18.19119	-649.82025	792.54333	17.36892	-626.07013	-709.46680	4.77744	485.09351	705.40167	1.39064	591.09875	17.02734	1321.07312	-942.20685	
6137	61.360	-777.44562	19.16937	-648.27545	792.27319	17.61691	-625.94623	-709.39447	4.36555	485.13565	705.10541	1.17448	591.34094	16.90644	1321.21777	-941.78772	
6138	61.370	-777.80847	19.50486	-648.17468	792.03583	17.78469	-625.80688	-709.92340	4.28987	485.13937	704.93134	0.87460	591.40991	16.86612	1321.46265	-941.40808	
6139	61.380	-778.16821	19.77071	-648.13531	791.80328	17.99085	-625.78290	-710.10211	4.04163	485.26740	704.83466	0.75496	591.42584	16.65931	1321.87683	-941.28204	
6140	61.390	-778.67126	20.07318	-648.25208	791.50433	18.27470	-625.66675	-710.36102	3.84638	485.39075	704.65442	0.64680	591.47980	16.30279	1322.45044	-941.30627	
6141	61.400	-779.79230	19.73036	-649.27307	791.40717	18.54209	-625.57794	-710.52557	3.68602	485.48416	704.38794	0.41807	591.51984	15.92821	1322.91724	-941.24768	
6142	61.410	-778.95398	20.67792	-648.41608	791.23212	18.83878	-625.47906	-710.74841	3.50374	485.60446	704.10309	0.20425	591.62360	15.78777	1323.19678	-941.04706	
6143	61.420	-779.16656	20.93046	-648.26471	791.02905	19.09328	-625.36157	-710.99872	3.24691	485.74240	703.42743	-0.34397	591.39948	15.62684	1323.59448	-940.42310	
6144	61.430	-779.50647	21.25886	-648.06610	790.67792	19.40722	-625.17780	-711.34576	3.09377	485.76392	703.33014	-0.53775	591.59802	15.32099	1323.97083	-939.91339	
6145	61.440	-779.71759	21.49003	-648.08929	790.45013	19.72228	-625.09625	-711.65784	2.91467	485.81268	703.01727	-0.83699	591.60980	15.26457	1324.76208	-939.18091	
6146	61.450	-779.84357	21.44693	-648.21204	790.08386	19.94927	-625.16541	-711.88196	2.70971	485.85907	702.63348	-0.72416	591.79724	14.80719	1325.09277	-938.22455	
6147	61.460	-780.04431	21.57148	-648.14856	789.87775	20.21813	-625.14734	-712.07642	2.54347	485.91290	702.38641	-0.77834	591.94366	14.17919	1325.27344	-937.19208	
6148	61.470	-780.18927	21.85742	-648.33673	789.51465	20.51480	-625.14874	-712.31122	2.32555	486.04114	701.93951	-1.08213	591.87280	13.97015	1325.49561	-935.93707	
6149	61.480	-780.21082	21.86780	-648.28485	789.18591	20.81336	-625.18829	-712.55243	2.18286	486.02362	701.63361	-1.51408	591.65521	14.06425	1325.76843	-934.84174	
6150	61.490	-781.27240	23.25664	-647.85834	789.05554	21.23170	-624.95459	-712.80060	2.07841	486.03094	701.28229	-1.76341	591.44928	13.64411	1326.38904	-933.70032	
6151	61.500	-781.81567	23.59235	-647.56897	788.49066	21.34387	-625.01172	-713.21881	1.92902	486.03528	701.48163	-2.22858	591.11224	13.44006	1326.72668	-933.13519	
6152	61.510	-782.27252	23.96842	-647.37195	788.46851	21.53049	-624.94305	-713.66101	1.74404	486.15018	700.82269	-2.36473	591.62195	12.94127	1327.18176	-932.73438	
6153	61.520	-782.48193	24.11859	-647.25812	788.09857	21.92651	-624.77332	-713.85492	1.60076	486.21957	700.68115	-2.68419	591.72919	12.60336	1327.58154	-932.26117	
6154	61.530	-782.63324	24.26212	-647.20233	787.78906	22.26996	-624.60303	-714.17773	1.41874	486.26166	700.31958	-3.01371	591.84253	12.17679	1327.89685	-931.83789	
6155	61.540	-782.83093	24.51261	-647.15424	787.74585	22.67930	-624.35437	-714.02179	1.08955	486.24069	700.07849	-3.26335	591.96320	11.84842	1328.33618	-931.62628	
6156	61.550	-782.92090	24.62740	-647.14063	787.53491	22.91673	-624.25946	-714.48975	0.98955	486.27997	699.87537	-3.37048	592.04010	11.57966	1328.83337	-931.38403	
6157	61.560	-783.07153	24.78695	-647.11890	787.34937	23.06520	-624.22827	-714.69818	0.70188	486.39554	699.61987	-3.53513	592.09351	11.53198	1329.25037	-931.14398	
6158	61.570	-783.66138	24.96407	-646.98669	787.01056	23.39053	-624.20709	-715.11682	0.46223	486.44086	698.76770	-4.12655	592.22614	11.35449	1329.71008	-930.95154	
6159	61.580	-784.05676	25.42026	-647.22748	786.58752	23.69278	-624.22772	-715.50781	0.38537	486.57965	698.67505	-4.46193	592.10870	10.93301	1330.11157	-930.39429	
6160	61.590	-784.40009	25.53350	-647.55237	786.17731	23.91521	-624.16675	-715.77850	0.12016	486.69916	698.71075	-4.33350	592.33960	10.87235	1330.38257	-929.80939	
6161	61.600	-784.91168	26.14332	-647.07214	786.13147	24.22196	-623.87781	-716.03027	0.00135	486.77341	698.62225	-4.42342	592.43292	10.31812	1330.59167	-929.06042	
6162	61.610	-785.18311	26.41170	-647.02905	785.82263	24.55372	-623.99225	-716.23273	-0.19729	486.75961	698.51703	-4.50247	592.49500	10.16294	1330.95459	-927.92889	
6163	61.620	-785.41736	26.62329	-646.94958	785.57697	24.87099	-623.92462	-716.30310	-0.63638	486.74042	698.31702	-4.72750	592.56171	9.94579	1331.49158	-927.05084	
6164	61.630	-785.50726	26.78278	-646.86761	785.25751	24.94674	-623.93774	-716.54498	-0.86223	487.15350	697.78558	-5.20216	592.55737	9.41183	1331.80554	-926.09619	
6165	61.640	-785.63141	26.93734	-646.81427	784.95355	25.03168	-623.79230	-716.79419	-0.99799	487.20328	697.36133	-5.51906	592.61523	9.38409	1332.23840	-925.16083	
6166	61.650	-785.83832	27.11417	-646.73438	784.75781	25.35701	-623.74420	-717.02344	-1.05341	487.24109	696.81348	-5.73722	592.78790	9.13759	1332.55518	-924.44299	
6167	61.660	-785.98633	27.23958	-646.61835	784.62354	25.70376	-623.62469	-717.22107	-1.13660	487.26025	696.90228	-5.79414	592.85266	9.14421	1332.54480	-924.10309	
6168	61.670	-785.92822	27.53686	-646.24292	784.44995	25.84594	-623.60083	-717.57355	-1.05664	487.32584	696.77155	-5.93328	592.84991	9.02342	1332.88538	-923.65540	
6169	61.680	-786.22070	27.88773	-646.14240	784.24005	25.96543	-623.64795	-717.91046	-1.21647	487.10220	696.67059	-6.02604	592.84399	8.80496	1333.13269	-923.50031	
6170	61.690	-786.33118	27.91141	-646.03613	783.91437	26.15067	-623.57819	-718.13330	-1.49268	487.13440	696.32977	-6.17432	592.77460	8.35890	1333.41663	-923.29681	
6171	61.700	-786.50275	27.98183	-646.02429	783.59326	26.29183	-623.48181	-718.35815	-1.64842	487.26630	696.17615	-6.23193	592.82880	7.91380	1333.87866	-923.27533	
6172	61.710	-786.86310	28.07448	-646.17737	783.39331	26.49847	-623.45874	-718.50952	-1.69149	487.33148	696.06952	-6.28975	592.84760	7.66890	1334.23315	-923.34802	
6173	61.720	-787.07422	28.37555	-646.20892	783.11884	26.58690	-623.46844	-718.69189	-1.74515	487.29843	695.89545	-6.34420	592.87305	7.51810	1334.50500	-923.31598	
6174	61.730	-787.40588	28.69808	-646.24518	782.92944	26.72842	-623.48102	-718.92383	-1.85534	487.24411	695.56903	-6.45980	592.92383	7.46679	1334.60278	-923.24438	
6175	61.740	-787.76068	28.82252	-646.31641	782.68018	26.84331	-623.50537	-719.05145	-1.91022	487.32507	695.11230	-6.62899	593.01184	7.34557	1334.73254	-922.92871	
6176	61.750	-788.05487	28.87029	-646.35626	782.52032	26.96006	-623.47150	-719.28046	-1.96264	487.36411	694.78119	-6.75351	593.12659	7.06301	1334.79456	-922.26593	
6177	61.760	-788.10779	28.90687	-646.28394	782.38196	27.07334	-623.45795	-719.38879	-2.04593	487.41977	694.62164	-6.87544	593.16949	7.00438	1334.69116	-921.90430	
6178	61.770	-788.40363	28.93588	-646.29089	782.23730	27.17561	-623.37274	-719.50452	-2.10551	487.47699	694.51099	-7.00674	593.14221	6.80768	1334.90784	-921.49658	
6179	61.780	-788.01965	28.89843	-645.56311	782.12067	27.26133	-623.28644	-719.67383	-2.11029	487.48035	694.39722	-7.11089	593.14911	6.42874	1335.15027	-920.94263	
6180	61.790	-788.10425	29.07409	-645.60468	781.99420	27.25769	-623.27777	-719.85266	-2.21016	487.55478	694.02655	-7.20974	593.24426	6.18359	1335.19324	-920.56409	
6181	61.800	-788.48059	29.54076	-645.90839	781.86847	27.30704	-623.28271	-719.99097	-2.49060	487.58047	693.81580	-7.21296	593.36334	6.04421	1335.19580	-920.22052	
6182	61.810	-789.00885	29.42649	-646.08411	781.75879	27.36540	-623.23218	-720.32788	-2.13973	487.48621	693.76740	-7.25763	593.36554	6.00957	1335.20532	-920.12683	
6183	61.820	-789.09467	29.41750	-646.04907	781.64667	27.43789	-623.20813	-720.49786	-2.18691	487.56229	693.44818	-7.20762	593.53302	6.00479	1335.35461	-920.17157	
6184	61.830	-788.82489	29.38057	-645.61652	781.58337	27.47623	-623.20856	-720.60333	-2.19305	487.58145	693.65173	-7.29387	593.33966	5.91841	1335.44080	-920.22150	
6185	61.840	-789.21600	29.49862	-646.02423	781.48547	27.54018	-623.19629	-720.62207	-2.20812	487.55380	693.29156	-7.19106	593.48065	5.91605	1335.48059	-920.37988	
6186	61.850	-789.25214	29.51446	-645.97241	781.45746	27.54120	-623.17334	-720.68237	-2.28571	487.63425	693.23590	-7.19222	593.51611	5.87046	1335.43347	-920.52612	
